REM DIRINDEX 1\3,1\4,1\5,1\6,1\2\7,1\2\8,1\2\9,1\10
REM DIRNAME cjc056,folder01,folder02,folder03,folder04,folder05,folder06,folder07,folder08,folder09
TITLE ""
FILE "1-42 Level 3-350-360.mp3" MP3
  TRACK 01 AUDIO
    TITLE "0:"
    INDEX 01 00:00:00
  TRACK 02 AUDIO
    TITLE "10:cjc056_1234"
    INDEX 01 00:00:07
  TRACK 03 AUDIO
    TITLE "0:"
    INDEX 01 00:01:36
  TRACK 04 AUDIO
    TITLE "7:cjc056_1235"
    INDEX 01 00:02:10
  TRACK 05 AUDIO
    TITLE "0:"
    INDEX 01 00:03:21
  TRACK 06 AUDIO
    TITLE "8:cjc056_1236"
    INDEX 01 00:03:33
  TRACK 07 AUDIO
    TITLE "0:"
    INDEX 01 00:05:10
  TRACK 08 AUDIO
    TITLE "9:cjc056_1237"
    INDEX 01 00:05:24
  TRACK 09 AUDIO
    TITLE "0:"
    INDEX 01 00:06:65
  TRACK 10 AUDIO
    TITLE "7:cjc056_1238"
    INDEX 01 00:07:43
  TRACK 11 AUDIO
    TITLE "0:"
    INDEX 01 00:08:42
  TRACK 12 AUDIO
    TITLE "8:cjc056_1239"
    INDEX 01 00:08:54
  TRACK 13 AUDIO
    TITLE "0:"
    INDEX 01 00:09:65
  TRACK 14 AUDIO
    TITLE "9:cjc056_1240"
    INDEX 01 00:10:02
  TRACK 15 AUDIO
    TITLE "0:"
    INDEX 01 00:11:62
  TRACK 16 AUDIO
    TITLE "7:cjc056_1241"
    INDEX 01 00:12:40
  TRACK 17 AUDIO
    TITLE "0:"
    INDEX 01 00:13:33
  TRACK 18 AUDIO
    TITLE "8:cjc056_1242"
    INDEX 01 00:13:45
  TRACK 19 AUDIO
    TITLE "0:"
    INDEX 01 00:15:05
  TRACK 20 AUDIO
    TITLE "9:cjc056_1243"
    INDEX 01 00:15:17
  TRACK 21 AUDIO
    TITLE "0:"
    INDEX 01 00:17:29
  TRACK 22 AUDIO
    TITLE "7:cjc056_1244"
    INDEX 01 00:18:15
  TRACK 23 AUDIO
    TITLE "0:"
    INDEX 01 00:19:26
  TRACK 24 AUDIO
    TITLE "8:cjc056_1245"
    INDEX 01 00:19:40
  TRACK 25 AUDIO
    TITLE "0:"
    INDEX 01 00:21:19
  TRACK 26 AUDIO
    TITLE "9:cjc056_1246"
    INDEX 01 00:21:33
  TRACK 27 AUDIO
    TITLE "0:"
    INDEX 01 00:23:22
  TRACK 28 AUDIO
    TITLE "7:cjc056_1247"
    INDEX 01 00:23:69
  TRACK 29 AUDIO
    TITLE "0:"
    INDEX 01 00:25:09
  TRACK 30 AUDIO
    TITLE "8:cjc056_1248"
    INDEX 01 00:25:19
  TRACK 31 AUDIO
    TITLE "0:"
    INDEX 01 00:26:24
  TRACK 32 AUDIO
    TITLE "9:cjc056_1249"
    INDEX 01 00:26:38
  TRACK 33 AUDIO
    TITLE "0:"
    INDEX 01 00:28:41
  TRACK 34 AUDIO
    TITLE "7:cjc056_1250"
    INDEX 01 00:29:17
  TRACK 35 AUDIO
    TITLE "0:"
    INDEX 01 00:30:14
  TRACK 36 AUDIO
    TITLE "8:cjc056_1251"
    INDEX 01 00:30:30
  TRACK 37 AUDIO
    TITLE "0:"
    INDEX 01 00:31:51
  TRACK 38 AUDIO
    TITLE "9:cjc056_1252"
    INDEX 01 00:31:63
  TRACK 39 AUDIO
    TITLE "0:"
    INDEX 01 00:33:24
  TRACK 40 AUDIO
    TITLE "7:cjc056_1253"
    INDEX 01 00:34:00
  TRACK 41 AUDIO
    TITLE "0:"
    INDEX 01 00:34:71
  TRACK 42 AUDIO
    TITLE "8:cjc056_1254"
    INDEX 01 00:35:10
  TRACK 43 AUDIO
    TITLE "0:"
    INDEX 01 00:36:27
  TRACK 44 AUDIO
    TITLE "9:cjc056_1255"
    INDEX 01 00:36:44
  TRACK 45 AUDIO
    TITLE "0:"
    INDEX 01 00:38:04
  TRACK 46 AUDIO
    TITLE "7:cjc056_1256"
    INDEX 01 00:38:55
  TRACK 47 AUDIO
    TITLE "0:"
    INDEX 01 00:39:70
  TRACK 48 AUDIO
    TITLE "8:cjc056_1257"
    INDEX 01 00:40:11
  TRACK 49 AUDIO
    TITLE "0:"
    INDEX 01 00:41:18
  TRACK 50 AUDIO
    TITLE "9:cjc056_1258"
    INDEX 01 00:41:30
  TRACK 51 AUDIO
    TITLE "0:"
    INDEX 01 00:43:07
  TRACK 52 AUDIO
    TITLE "7:cjc056_1259"
    INDEX 01 00:43:58
  TRACK 53 AUDIO
    TITLE "0:"
    INDEX 01 00:44:60
  TRACK 54 AUDIO
    TITLE "8:cjc056_1260"
    INDEX 01 00:44:73
  TRACK 55 AUDIO
    TITLE "0:"
    INDEX 01 00:46:06
  TRACK 56 AUDIO
    TITLE "9:cjc056_1261"
    INDEX 01 00:46:17
  TRACK 57 AUDIO
    TITLE "0:"
    INDEX 01 00:47:74
  TRACK 58 AUDIO
    TITLE "7:cjc056_1262"
    INDEX 01 00:48:51
  TRACK 59 AUDIO
    TITLE "0:"
    INDEX 01 00:49:51
  TRACK 60 AUDIO
    TITLE "8:cjc056_1263"
    INDEX 01 00:49:65
  TRACK 61 AUDIO
    TITLE "0:"
    INDEX 01 00:51:03
  TRACK 62 AUDIO
    TITLE "9:cjc056_1264"
    INDEX 01 00:51:18
  TRACK 63 AUDIO
    TITLE "0:"
    INDEX 01 00:53:06
  TRACK 64 AUDIO
    TITLE "7:cjc056_1265"
    INDEX 01 00:53:58
  TRACK 65 AUDIO
    TITLE "0:"
    INDEX 01 00:54:58
  TRACK 66 AUDIO
    TITLE "8:cjc056_1266"
    INDEX 01 00:54:72
  TRACK 67 AUDIO
    TITLE "0:"
    INDEX 01 00:56:08
  TRACK 68 AUDIO
    TITLE "9:cjc056_1267"
    INDEX 01 00:56:20
  TRACK 69 AUDIO
    TITLE "0:"
    INDEX 01 00:58:09
